<svg width="18" height="18" viewBox="0 0 18 18" fill="none" xmlns="http://www.w3.org/2000/svg">
<path d="M13.996 11.3288L12.1579 11.1263C11.7164 11.0775 11.2822 11.2241 10.971 11.5244L9.63945 12.8092C7.59144 11.8037 5.91251 10.1906 4.87041 8.20748L6.20922 6.91564C6.5204 6.61538 6.67237 6.1964 6.62171 5.77045L6.41185 4.01075C6.325 3.30548 5.70988 2.77478 4.97173 2.77478H3.71976C2.902 2.77478 2.22175 3.43117 2.2724 4.22024C2.65595 10.1836 7.59868 14.946 13.7717 15.3161C14.5894 15.365 15.2697 14.7086 15.2697 13.9195V12.7115C15.2769 12.0062 14.7269 11.4126 13.996 11.3288V11.3288Z" fill="#212121"/>
</svg>
