<svg aria-hidden="true" style="position:absolute;width:0;height:0" xmlns="http://www.w3.org/2000/svg" overflow="hidden"><defs>
<symbol id="icon-envelope-1" viewBox="0 0 43 32"><path d="M38.667 0H4C1.795 0 0 1.795 0 4v24c0 2.205 1.795 4 4 4h34.667c2.205 0 4-1.795 4-4V4c0-2.205-1.795-4-4-4zm0 2.667c.181 0 .355.037.512.104L21.334 18.238 3.489 2.771c.151-.065.327-.104.512-.104h34.667zm0 26.666H4A1.333 1.333 0 0 1 2.667 28V5.587l17.792 15.421c.233.203.539.327.875.327s.642-.124.876-.328l-.002.001L40 5.587V28c0 .736-.597 1.333-1.333 1.333z"/></symbol>
<symbol id="icon-smartphone-1" viewBox="0 0 20 32"><path d="M17 0H3C1.346 0 0 1.346 0 3v26c0 1.654 1.346 3 3 3h14c1.654 0 3-1.346 3-3V3c0-1.654-1.346-3-3-3zM3 2h14a1 1 0 0 1 1 1v21H2V3a1 1 0 0 1 1-1zm14 28H3a1 1 0 0 1-1-1v-3h16v3a1 1 0 0 1-1 1z"/><path d="M4.708 27.478a.889.889 0 0 1 .001 1.319l-.001.001a1.048 1.048 0 0 1-1.417 0l.001.001a.889.889 0 0 1-.001-1.319l.001-.001a1.048 1.048 0 0 1 1.417 0l-.001-.001z"/></symbol>
<symbol id="icon-antenna-1" viewBox="0 0 30 32"><path d="m29.859 22.098-8.443-8.505.937-4.616c.225.09.485.144.758.146h.033a2.16 2.16 0 1 0-2.029-1.42l-.005-.015-4.96.606L8.059.161a.53.53 0 0 0-.376-.16.536.536 0 0 0-.373.155L5.798 1.66a.535.535 0 0 0 0 .754l.814.825c-1.143 2.062-1.816 4.522-1.816 7.139 0 4.106 1.656 7.824 4.336 10.525l-.001-.001a.49.49 0 0 0 .146.097 2.986 2.986 0 0 0-.052.546v6.188h-6.4a2.669 2.669 0 0 0-2.667 2.666v1.067c0 .295.239.534.534.534h24.534a.534.534 0 0 0 .533-.534v-1.067a2.67 2.67 0 0 0-2.666-2.666h-6.4v-2.742a14.784 14.784 0 0 0 10.166-1.502l-.077.039.818.823a.534.534 0 0 0 .376.16.536.536 0 0 0 .373-.155l1.512-1.504a.535.535 0 0 0 0-.754zM22.366 6.233a1.067 1.067 0 1 1 .752 1.822h-.004a1.066 1.066 0 0 1-.747-1.822h-.002zM21.11 9.737l-.598 2.946-1.175-1.183 1.774-1.763zm-.606-.902-1.92 1.909-1.486-1.493 3.406-.416zM23.09 28.8a1.6 1.6 0 0 1 1.6 1.6v.534H1.224V30.4a1.6 1.6 0 0 1 1.6-1.6h20.267zm-7.467-2.134v1.067h-5.334v-1.067h5.334zM10.29 25.6v-4.053c0-1.294 1.196-2.346 2.666-2.346s2.667 1.053 2.667 2.346V25.6H10.29zm6.4-1.696v-2.357c0-1.882-1.675-3.413-3.733-3.413h-.058c-1.353 0-2.54.707-3.213 1.771l-.009.016a13.817 13.817 0 0 1-3.812-9.55c0-2.314.567-4.496 1.569-6.414l-.036.077L26 22.743c-1.823.947-3.979 1.502-6.266 1.502-1.079 0-2.128-.124-3.136-.357l.093.018zm11.289-.684L6.922 2.039l.754-.752 7.935 7.98c.004 0 .006.007.01.01l13.115 13.191-.757.752z"/><path d="M12.961 20.267h-.007a1.6 1.6 0 0 0-.003 3.2h.007a1.6 1.6 0 0 0 .002-3.2zm.373 1.978a.534.534 0 1 1-.378-.912.533.533 0 0 1 .374.911h.005z"/></symbol>
<symbol id="icon-clock-1-1" viewBox="0 0 32 32"><path d="M31.296 15.301C31.295 6.849 24.441-.002 15.988 0S.685 6.855.687 15.308c.002 6.788 4.422 12.543 10.541 14.545l.108.031a.667.667 0 0 0 .529-.065.636.636 0 0 0 .283-.357l3.865-12.25a1.913 1.913 0 1 0-.852-3.63l.011-.005-5.106-5.107a.638.638 0 0 0-.902.902l5.103 5.109a1.847 1.847 0 0 0-.191.826c0 .602.283 1.137.723 1.48l.004.003-3.682 11.673C3.843 25.782.117 17.709 2.797 10.431S13.551-.573 20.829 2.108c7.278 2.681 11.004 10.754 8.323 18.032-1.345 3.581-4.003 6.406-7.374 7.938l-.088.036-.398-1.874a.639.639 0 0 0-1.05-.343l.001-.001-3.837 3.426a.637.637 0 0 0 .227 1.083l.005.001 4.899 1.563a.637.637 0 0 0 .818-.744l.001.004-.391-1.839c5.528-2.374 9.329-7.772 9.329-14.057v-.034.002zm-15.304-.637a.638.638 0 0 1 0 1.276.638.638 0 0 1 0-1.276zm2.1 14.864 2.184-1.948.603 2.84-2.787-.892z"/><path d="M15.354 3.185V4.46a.638.638 0 0 0 1.276 0V3.185a.638.638 0 1 0-1.276 0zM3.876 14.664a.638.638 0 0 0 0 1.276h1.275a.638.638 0 0 0 0-1.276H3.876zm24.232 1.275a.638.638 0 0 0 0-1.276h-1.275a.638.638 0 0 0 0 1.276h1.275z"/></symbol>
<symbol id="icon-diagram-1-1" viewBox="0 0 32 32"><path d="M14.926 14.965h1.066v4.798h-1.066v-4.798zm4.264 2.132h1.066v2.665H19.19v-2.665zm-8.529 1.599h1.066v1.066h-1.066v-1.066zm-3.198-.533h1.066v1.599H7.463v-1.599z"/><path d="M1.599 28.291h25.586a1.6 1.6 0 0 0 1.599-1.599V24.56a1.6 1.6 0 0 0-1.599-1.599h-.533V9.667l3.028-2.868a1.608 1.608 0 1 0-.742-.752l-.004-.01-2.281 2.162v-1.23a1.6 1.6 0 0 0-1.599-1.599H3.731a1.6 1.6 0 0 0-1.599 1.599v15.992h-.533A1.6 1.6 0 0 0 0 24.56v2.132a1.6 1.6 0 0 0 1.599 1.599zM30.384 4.837a.533.533 0 0 1 0 1.066.533.533 0 0 1 0-1.066zM3.198 6.969c0-.294.239-.533.533-.533h21.323c.294 0 .533.239.533.533v2.239l-1.066 1.013V8.036a.534.534 0 0 0-.534-.534H4.798a.534.534 0 0 0-.534.533v13.327c0 .294.239.533.534.533h19.189a.534.534 0 0 0 .534-.533v-9.675l1.066-1.01V22.96H3.198V6.969zm4.798 6.93h-.005a1.6 1.6 0 1 0 1.112 2.748l1.853.93a.535.535 0 0 0 .636-.122l3.939-4.432 3.872 2.902a.534.534 0 0 0 .686-.039l3.365-3.188v8.131H5.331V8.568h18.123v2.661l-3.771 3.572-3.904-2.927a.534.534 0 0 0-.718.071v.001l-3.993 4.493-1.493-.746c.011-.064.017-.128.02-.193a1.6 1.6 0 0 0-1.599-1.599zm.533 1.599a.533.533 0 0 1-1.066 0 .533.533 0 0 1 1.066 0zm3.198 8.528h5.33v.533a.533.533 0 0 1-.533.533h-4.265a.533.533 0 0 1-.533-.533v-.533zm-10.66.534c0-.294.238-.533.533-.533h9.062v.533a1.6 1.6 0 0 0 1.599 1.599h4.265a1.6 1.6 0 0 0 1.599-1.599v-.533h9.062c.294 0 .533.239.533.533v2.132a.533.533 0 0 1-.533.533H1.601a.533.533 0 0 1-.533-.533V24.56z"/></symbol>
<symbol id="icon-astronaut-1-1" viewBox="0 0 32 32"><path d="M31.974 4.524a.535.535 0 0 0-.427-.362h-.003l-1.911-.278-.855-1.731c-.179-.365-.777-.365-.956 0l-.855 1.731-1.911.278a.534.534 0 0 0-.296.91l1.383 1.348-.326 1.903a.532.532 0 0 0 .774.562l1.709-.899 1.709.899a.534.534 0 0 0 .773-.565v.003l-.326-1.903 1.383-1.348a.535.535 0 0 0 .134-.55l.001.004zm-2.463 1.327a.53.53 0 0 0-.153.472l.191 1.114-1-.526a.525.525 0 0 0-.501.001l.003-.001-1 .526.191-1.114a.53.53 0 0 0-.152-.472l-.811-.79 1.119-.162a.532.532 0 0 0 .402-.292l.5-1.013.5 1.013a.532.532 0 0 0 .402.292l1.119.162-.809.79zm-3.377 14.671h-1.067v1.067h1.067v-1.067zm0 2.134h-1.067v1.066h1.067v-1.066zm1.066-1.067h-1.067v1.067H27.2v-1.067zm-2.133 0H24v1.067h1.067v-1.067zm-2.667 4.8h-1.067v1.067H22.4v-1.067zm0 2.134h-1.067v1.067H22.4v-1.067zm1.067-1.067H22.4v1.067h1.067v-1.067zm-2.133 0h-1.067v1.067h1.067v-1.067zM16 24.256h-1.066v1.067H16v-1.067zm0 2.133h-1.066v1.067H16v-1.067zm1.067-1.067H16v1.067h1.067v-1.067zm-2.133 0h-1.067v1.067h1.067v-1.067zm-9.067-19.2H4.801v1.066h1.066V6.122zm0 2.134H4.801v1.066h1.066V8.256zm1.066-1.067H5.866v1.067h1.066V7.189zm-2.133 0H3.733v1.067H4.8V7.189z"/><path d="M24.715 14.16a1.776 1.776 0 0 0-1.179-.703l-.009-.001a1.769 1.769 0 0 0-1.344.355l.004-.003-1.253.96-1.898 1.417-1.358-.541c2.421-1.086 4.113-3.508 4.113-6.32 0-3.823-3.122-6.934-6.961-6.934S7.869 5.5 7.869 9.324c0 1.386.415 2.674 1.12 3.759l-2.768-.024c-.009 0-.016.005-.023.005a.511.511 0 0 0-.159.033l.004-.001c-.013.005-.026.007-.038.013-.006.003-.013.003-.019.006l-3.233 1.596-.001.001-1.893.91a.5.5 0 0 0-.065.036l.001-.001a1.782 1.782 0 0 0-.594 2.306l-.005-.01c.22.424.592.742 1.043.885l.013.003a1.772 1.772 0 0 0 1.388-.133l-.009.005 1.388-.738 2.264-1.169 1.357-.008-5.442 5.415-.001.001-1.339 1.333a1.643 1.643 0 0 0-.491 1.173v.005a1.668 1.668 0 0 0 1.667 1.664h.002a1.67 1.67 0 0 0 1.18-.485l1.314-1.309 1.741-1.3.901.897L4.07 27.28a1.643 1.643 0 0 0-.491 1.173v.004a1.662 1.662 0 0 0 1.666 1.664h.003a1.67 1.67 0 0 0 1.18-.485l4.488-4.472c.007-.006.016-.009.022-.016l5.166-5.658 3.471.494a.474.474 0 0 0 .262-.032c.017-.006.032-.015.049-.023.019-.01.039-.015.058-.027l3.213-2.133c.012-.008.018-.021.029-.03.013-.01.029-.014.041-.026l1.271-1.191c.348-.326.564-.787.564-1.3 0-.4-.132-.769-.355-1.066l.003.005zM2.13 17.77a.706.706 0 0 1-.564.05l.005.001a.717.717 0 0 1-.215-1.258l.002-.001 1.314-.632.316.924.133.389-.992.527zm3.497-1.828-1.548.8-.255-.746-.184-.537 2.027-1.001-.04 1.484zm15.1-6.62c0 .918-.219 1.785-.599 2.56l-4.181-1.899a1.865 1.865 0 0 0-.782-1.384l-.006-.004 1.464-4.861c2.377.757 4.104 2.975 4.104 5.588zm-11.789 0c0-3.235 2.644-5.867 5.894-5.867.253 0 .5.022.745.053l-1.432 4.753c-.019 0-.037-.006-.057-.006h-.001a1.872 1.872 0 0 0-1.872 1.867 1.873 1.873 0 0 0 1.872 1.867h.001c.695 0 1.295-.383 1.618-.944l3.863 1.755a5.891 5.891 0 0 1-4.737 2.39c-3.25 0-5.894-2.632-5.894-5.867zm5.957.8c0 .441-.362.8-.806.8h-.001a.804.804 0 0 1-.804-.8c0-.441.361-.8.806-.8s.806.359.806.8zM2.464 25.146a.606.606 0 0 1-.855.001.591.591 0 0 1 0-.844l.962-.959.852.848-.959.954zm3.214 3.734a.606.606 0 0 1-.855.001.591.591 0 0 1 0-.844l.963-.959.852.848-.96.955zm3.482-3.469-.001.001-1.765 1.76-.852-.848 1.765-1.757a.527.527 0 0 0 .09-.136c.007-.014.02-.026.026-.04.016-.041.019-.085.026-.128.003-.025.014-.048.014-.073 0-.035-.013-.07-.02-.105-.006-.032-.006-.064-.019-.096a.536.536 0 0 0-.092-.138c-.01-.012-.014-.026-.025-.038h-.001l-.001-.002-1.607-1.6c-.017-.017-.039-.024-.058-.038a.491.491 0 0 0-.084-.056l-.003-.001a.527.527 0 0 0-.09-.031l-.003-.001a.502.502 0 0 0-.101-.02h-.025a.603.603 0 0 0-.075.005h.003c-.036.005-.069.009-.104.021s-.064.027-.094.045c-.02.011-.043.015-.061.029l-1.774 1.324-.901-.897 2.399-2.386 4.36 4.289-.928.919zm6.819-7.017c-.016-.002-.03.004-.046.003l-.027-.001a.562.562 0 0 0-.092.008h.003a.484.484 0 0 0-.187.07l.002-.001a.492.492 0 0 0-.083.061c-.013.011-.028.016-.04.029l-4.698 5.146-4.328-4.256 2.833-2.818a.535.535 0 0 0-.378-.911h-.002l-2.219.013.028-1.607 3.104.027a6.928 6.928 0 0 0 4.978 2.101h.003c.438 0 .864-.046 1.28-.122.04.032.08.064.129.085l2.41.96.152.758.178.886-3.003-.427zm4.041.178-.313-1.558 1.446-1.08.946 1.257-2.08 1.381zm3.753-2.831-.837.785-.931-1.236.831-.637a.735.735 0 0 1 .543-.143.718.718 0 0 1 .621.71.71.71 0 0 1-.226.521z"/><path d="m13.602 18.544-2.143-2.134a.53.53 0 0 0-.752 0l-2.143 2.133a.535.535 0 0 0 0 .756l2.142 2.134a.53.53 0 0 0 .752 0l2.143-2.134a.532.532 0 0 0 0-.756zm-2.519 1.759-1.387-1.381 1.386-1.381 1.387 1.381-1.387 1.381zm6.081-15.232-.258 1.036c.071.018 1.738.452 1.738 2.149h1.067c0-2.017-1.666-2.965-2.547-3.184zm2.547 4.251h-1.067v1.066h1.067V9.322z"/>
</symbol>
<symbol id="icon-instagram-2" viewBox="0 0 32 32"><path d="M31.968 9.408c-.074-1.701-.349-2.869-.742-3.882a7.839 7.839 0 0 0-1.85-2.837l-.001-.001A7.906 7.906 0 0 0 26.597.861l-.054-.018C25.524.449 24.362.176 22.661.101 20.949.019 20.405 0 16.059 0c-4.344 0-4.888.019-6.595.094-1.699.074-2.869.349-3.88.742a7.847 7.847 0 0 0-2.839 1.85l-.001.001A7.9 7.9 0 0 0 .919 5.465l-.018.054C.506 6.538.232 7.7.157 9.401c-.082 1.712-.101 2.256-.101 6.602 0 4.344.019 4.888.094 6.595.075 1.701.35 2.869.744 3.882a7.915 7.915 0 0 0 1.849 2.837l.001.001c.8.813 1.77 1.443 2.832 1.843 1.019.395 2.182.67 3.882.744 1.707.075 2.251.094 6.595.094 4.346 0 4.89-.019 6.595-.094 1.701-.074 2.869-.349 3.882-.742a8.237 8.237 0 0 0 4.664-4.628l.019-.055c.394-1.019.669-2.182.744-3.882.075-1.707.093-2.251.093-6.595s-.006-4.888-.08-6.595zm-2.88 13.066c-.07 1.563-.333 2.406-.55 2.97a5.341 5.341 0 0 1-3.004 3.024l-.036.012c-.56.219-1.411.482-2.968.55-1.688.075-2.194.094-6.464.094-4.269 0-4.782-.019-6.464-.094-1.563-.069-2.406-.331-2.97-.55a4.953 4.953 0 0 1-1.836-1.192l-.001-.001a4.978 4.978 0 0 1-1.184-1.803L3.6 25.45c-.218-.563-.48-1.413-.549-2.97-.075-1.688-.094-2.195-.094-6.464 0-4.27.019-4.784.094-6.464.069-1.563.331-2.406.549-2.97a4.897 4.897 0 0 1 1.198-1.837l.002-.002a4.972 4.972 0 0 1 1.806-1.182l.034-.011c.56-.219 1.411-.48 2.968-.55 1.688-.074 2.195-.093 6.464-.093 4.275 0 4.782.019 6.464.093 1.563.069 2.406.331 2.97.55a4.91 4.91 0 0 1 1.837 1.194c.531.52.938 1.144 1.195 1.84.218.56.48 1.411.549 2.968.075 1.688.094 2.194.094 6.464 0 4.269-.019 4.768-.094 6.458z"/><path d="M16.059 7.782a8.223 8.223 0 0 0-8.219 8.221 8.223 8.223 0 0 0 16.442.008v-.009a8.223 8.223 0 0 0-8.221-8.221zm0 13.552a5.333 5.333 0 0 1 .001-10.666h.001a5.334 5.334 0 1 1 0 10.668zM26.525 7.458a1.92 1.92 0 0 1-3.84 0 1.92 1.92 0 0 1 3.84 0z"/></symbol>
<symbol id="icon-twitter-1-1" viewBox="0 0 32 32"><path d="M32 6.078c-1.1.493-2.376.857-3.713 1.028l-.068.007a6.556 6.556 0 0 0 2.873-3.579l.013-.046a12.88 12.88 0 0 1-4.076 1.573l-.084.014A6.558 6.558 0 0 0 15.6 9.557v.004c0 .52.043 1.021.152 1.496-5.454-.266-10.28-2.88-13.522-6.861a6.524 6.524 0 0 0-.902 3.313v.001a6.57 6.57 0 0 0 2.914 5.451 6.453 6.453 0 0 1-2.994-.823l.033.017v.072a6.592 6.592 0 0 0 5.213 6.44l.043.008a6.403 6.403 0 0 1-1.662.215h-.061.003c-.419 0-.843-.024-1.242-.112.85 2.598 3.261 4.509 6.13 4.57a13.093 13.093 0 0 1-8.122 2.8H1.57h.001-.062c-.531 0-1.055-.034-1.569-.099l.061.006c2.826 1.846 6.287 2.944 10.004 2.944h.063-.003c12.072 0 18.672-10 18.672-18.669 0-.288-.01-.57-.024-.848a13.203 13.203 0 0 0 3.258-3.355l.03-.047z"/></symbol>
<symbol id="icon-vector-facebook-1" viewBox="0 0 18 32"><path d="M13.328 5.312h2.923V.224A36.496 36.496 0 0 0 12.143 0h-.156.008C7.782 0 4.896 2.65 4.896 7.52V12H.25v5.688h4.646V32h5.698V17.69h4.462l.707-5.69h-5.168V8.08c0-1.643.443-2.768 2.734-2.768z"/></symbol>
<symbol id="icon-linkedin-1-1" viewBox="0 0 32 32"><path d="M31.992 32H32V20.262c0-5.741-1.237-10.163-7.947-10.163-3.227 0-5.392 1.77-6.277 3.45h-.093v-2.914h-6.365v21.363h6.627V21.42c0-2.786.528-5.48 3.978-5.48 3.398 0 3.448 3.179 3.448 5.658V32h6.621zM.528 10.635h6.635V32H.528V10.635zM3.843 0A3.843 3.843 0 0 0 0 3.843c0 2.12 1.722 3.878 3.843 3.878 2.12 0 3.842-1.757 3.842-3.878S5.965.002 3.844 0z"/></symbol>
<symbol id="icon-ya-co" viewBox="0 0 28 32"><path d="m4.085 0 4.771 4.517-8.857-.005v21.915h23.149v-8.379l4.766 4.512V.001H4.084zm18.854 17.517L9.411 4.71h13.528v12.807zm-4.2 5.703H3.663V8.482h1.066v13.74H18.74v.997zM7.224 29.345l-.557 1.147-.557-1.147h-.467l.813 1.529v.891h.422v-.891l.811-1.529h-.465zm.7 2.42.196-.564h.938l.197.564h.439l-.916-2.42H8.4l-.914 2.42h.437zm.664-1.906.351 1.004h-.701l.351-1.004zm2.218.945a.544.544 0 0 0-.091.303v.004c0 .204.072.37.214.497s.336.19.575.19a1 1 0 0 0 .618-.195l.136.161h.468l-.355-.421c.14-.191.209-.435.209-.733h-.351a.973.973 0 0 1-.101.444l-.468-.552.165-.12a.922.922 0 0 0 .249-.249l.002-.003a.53.53 0 0 0 .076-.275v-.013a.495.495 0 0 0-.169-.374h-.001a.61.61 0 0 0-.408-.157h-.025.001c-.195 0-.35.056-.465.166s-.173.259-.173.449c0 .078.018.157.054.241.038.083.104.184.197.302-.179.129-.3.24-.36.334zm1.092.536a.613.613 0 0 1-.382.136h-.02a.395.395 0 0 1-.27-.106.36.36 0 0 1-.108-.259v-.014.001c0-.129.067-.245.2-.346l.052-.037.528.624zm-.434-1.073c-.114-.141-.172-.257-.172-.351 0-.081.024-.148.07-.201a.239.239 0 0 1 .178-.081h.01-.001.009c.067 0 .127.026.173.068a.214.214 0 0 1 .072.161v.009a.3.3 0 0 1-.103.226l-.052.041-.184.127zm3.94 1.315c.166-.145.261-.347.286-.605h-.419c-.022.173-.075.296-.158.37s-.208.112-.372.112c-.18 0-.318-.069-.412-.206s-.14-.337-.14-.599v-.214c.003-.259.052-.453.15-.587a.494.494 0 0 1 .422-.201c.157 0 .276.039.357.116s.133.202.153.376h.419c-.027-.265-.121-.47-.285-.615s-.378-.218-.645-.218a.978.978 0 0 0-.525.142.925.925 0 0 0-.345.396l-.002.006a1.396 1.396 0 0 0-.122.576v.03-.001.226c.003.223.045.418.125.587s.193.298.339.39a.955.955 0 0 0 .511.136c.276 0 .497-.072.663-.216zm2.471-.339c.082-.18.123-.388.123-.625v-.158c0-.216-.047-.421-.131-.605l.004.009a.932.932 0 0 0-.35-.406l-.004-.002c-.152-.095-.326-.143-.524-.143s-.372.048-.525.144a.939.939 0 0 0-.354.414c-.079.175-.125.38-.125.595v.032-.002.136c.001.232.043.436.126.613a.95.95 0 0 0 .356.411.98.98 0 0 0 .525.143.971.971 0 0 0 .526-.143.941.941 0 0 0 .352-.413zm-.45-1.369c.102.143.152.349.152.618v.126c0 .272-.05.48-.151.622a.49.49 0 0 1-.429.213h-.017a.503.503 0 0 1-.413-.216l-.001-.002c-.104-.145-.155-.351-.155-.617v-.14c.002-.26.054-.462.156-.603a.498.498 0 0 1 .409-.215h.018-.001c.187 0 .33.072.431.214z"/></symbol>
<symbol id="icon-company-1" viewBox="0 0 34 32"><path d="M5.643 31.315c.012 0 .024.003.035.008s.021.011.03.018l.166.158c-.13.129-.289.232-.468.302a1.78 1.78 0 0 1-.62.109l-.045-.001h.002a1.742 1.742 0 0 1-.622-.101 1.365 1.365 0 0 1-.47-.286l.001.001a1.294 1.294 0 0 1-.301-.432l-.003-.008a1.442 1.442 0 0 1-.106-.548v-.018.001-.029c0-.388.168-.737.436-.977l.001-.001a1.52 1.52 0 0 1 .498-.287 1.96 1.96 0 0 1 .642-.101h.04c.199 0 .39.034.568.096l-.012-.004c.165.062.316.149.447.255l-.139.169a.143.143 0 0 1-.035.03h-.001a.098.098 0 0 1-.048.013h-.008a.132.132 0 0 1-.062-.018h.001l-.074-.046-.104-.058a1.182 1.182 0 0 0-.321-.1l-.007-.001a1.376 1.376 0 0 0-.23-.018h-.019.001-.015c-.16 0-.313.028-.455.079l.009-.003a1.07 1.07 0 0 0-.363.214l.001-.001a.977.977 0 0 0-.235.339 1.117 1.117 0 0 0-.085.432v.017-.001.019c0 .157.031.307.088.444l-.003-.008a.953.953 0 0 0 .576.548c.136.049.281.073.427.072.085.001.17-.004.254-.014.211-.022.4-.106.55-.234l-.001.001a.133.133 0 0 1 .078-.029zm4.798-.798v.017c0 .197-.041.384-.116.553l.003-.009a1.24 1.24 0 0 1-.311.435l-.001.001c-.138.123-.302.22-.481.283l-.01.003a2.03 2.03 0 0 1-1.278-.004l.014.004a1.471 1.471 0 0 1-.489-.288l.001.001a1.28 1.28 0 0 1-.313-.432l-.003-.008a1.454 1.454 0 0 1 .004-1.134l-.004.01c.071-.165.178-.315.316-.442a1.45 1.45 0 0 1 .488-.277 2.003 2.003 0 0 1 1.278.004l-.014-.004c.184.065.351.162.49.286a1.296 1.296 0 0 1 .426 1zm-.436 0v-.024a1.19 1.19 0 0 0-.082-.436l.003.008a.935.935 0 0 0-.566-.548l-.007-.002a1.455 1.455 0 0 0-.928.003l.01-.003a.997.997 0 0 0-.352.214.914.914 0 0 0-.223.331l-.002.006a1.321 1.321 0 0 0 .003.911l-.003-.009c.101.261.309.46.569.547l.007.002c.296.097.622.097.918 0a.97.97 0 0 0 .35-.211.933.933 0 0 0 .222-.338c.056-.145.082-.298.079-.451zm3.71.473.043.101c.017-.036.031-.069.048-.101.019-.039.037-.072.056-.103l-.002.004 1.061-1.677c.021-.029.04-.047.061-.053s.047-.009.073-.009h.015-.001.314v2.728h-.372v-2.09a.68.68 0 0 1 0-.096v.002l-1.069 1.701a.158.158 0 0 1-.062.061h-.001a.19.19 0 0 1-.09.023h-.064a.183.183 0 0 1-.09-.023h.001a.15.15 0 0 1-.061-.061v-.001l-1.099-1.711v2.189h-.359v-2.722h.328c.026 0 .051.003.075.01h-.002c.026.011.046.03.058.053l1.084 1.678c.02.028.038.06.053.094l.001.004zm3.995-.135v1.021h-.414v-2.723h.926c.175-.003.349.018.517.059.134.034.259.091.366.17.089.07.159.16.205.262l.002.004c.05.111.073.23.071.349v.017a.755.755 0 0 1-.299.603l-.002.001a1.062 1.062 0 0 1-.368.18c-.14.04-.301.064-.468.064h-.035l-.501-.008zm0-.293h.503c.109.002.218-.013.322-.041a.69.69 0 0 0 .234-.119l-.002.001a.522.522 0 0 0 .191-.404v-.007l.001-.029a.453.453 0 0 0-.043-.195l.001.003a.529.529 0 0 0-.144-.185l-.001-.001a.888.888 0 0 0-.562-.146h.003-.503v1.122zm5.584 1.318h-.334a.15.15 0 0 1-.086-.026h.001a.161.161 0 0 1-.054-.062v-.001l-.282-.658H21.12l-.293.658a.156.156 0 0 1-.141.088h-.333l1.246-2.728h.432l1.263 2.728zm-2.057-1.013h1.172l-.494-1.11a1.875 1.875 0 0 1-.094-.256l-.048.142a.876.876 0 0 1-.046.116l-.49 1.108zm3.852-1.701a.173.173 0 0 1 .062.048l1.818 2.056v-2.117h.372v2.728h-.212a.204.204 0 0 1-.082-.017h.001a.221.221 0 0 1-.066-.05l-1.816-2.054.001.047-.002.049v-.002 2.027h-.372v-2.728h.22c.025 0 .051.005.075.013zm5.313 1.629v1.083h-.415v-1.082l-1.149-1.643h.381a.16.16 0 0 1 .081.023h-.001a.234.234 0 0 1 .056.062l.718 1.06a1.159 1.159 0 0 1 .128.241l.053-.117c.021-.043.044-.084.071-.124l.709-1.067a.293.293 0 0 1 .053-.058.137.137 0 0 1 .082-.027h.384l-1.15 1.65zm-16.893-6.219c.181.02.363.036.549.05 2.803-1.09 5.174-2.872 6.818-5.126s2.485-4.878 2.421-7.546l-3.09-2.683c.629 2.84.335 5.775-.848 8.478s-3.208 5.067-5.849 6.827z"/><path d="m12.407 24.451.083.015c2.822-1.755 4.973-4.203 6.176-7.031s1.402-5.904.571-8.83l-4.4-3.822c1.779 3.142 2.496 6.659 2.065 10.141-.43 3.482-1.989 6.786-4.495 9.528zm14.921-9.345c-.747 2.931-2.563 5.574-5.177 7.538a16.213 16.213 0 0 1-2.367 1.49l-.092.043c2.129-.543 4.085-1.504 5.718-2.808s2.901-2.917 3.703-4.714l-1.784-1.549z"/><path d="m26.628 14.674-2.54-2.207c-.049 2.517-.872 4.976-2.385 7.122s-3.66 3.902-6.217 5.084h.012c.57 0 1.139-.03 1.705-.088 2.39-.848 4.502-2.197 6.146-3.926s2.771-3.785 3.278-5.985zM12.774 3.17 9.743.534c-2.709.91-5.039 2.509-6.686 4.588S.526 9.664.518 12.188c.01 2.789 1.09 5.495 3.07 7.69 1.979 2.194 4.744 3.754 7.858 4.43 2.779-2.942 4.407-6.578 4.646-10.379s-.924-7.57-3.319-10.758zM33.63 14.268c-.011-3.308-1.528-6.478-4.221-8.818s-6.342-3.658-10.15-3.668h-.028c-1.831 0-3.59.305-5.231.867l.114-.034L32.67 18.737c.605-1.313.958-2.849.96-4.468v-.001z"/></symbol>
<symbol id="icon-company-2" viewBox="0 0 57 32"><path d="M26.727 3.165h-.073a7.542 7.542 0 0 0-.336-.012h-.243c-.212 0-.428.005-.642.016l-.024-.001-.025.001h.001c-2.059.12-3.971.635-5.699 1.47l.09-.039-.23.111V16.52l.54-.183a20.64 20.64 0 0 1 1.5-.445 17.815 17.815 0 0 1 4.305-.573h.012v1.551c-.193.001-.38.006-.568.016h-.045c-1.212.068-2.348.25-3.442.537l.12-.027c-1.503.382-2.82.91-4.044 1.586l.087-.044V3.793a15.49 15.49 0 0 1 4.042-1.665l.11-.024a15.544 15.544 0 0 1 3.909-.505h.231c.273.007.539.019.788.038.658.046 1.31.15 1.949.311v1.527a11.487 11.487 0 0 0-1.849-.282l-.039-.002-.039-.003c-.132-.011-.263-.022-.386-.022zm2.688 1.561c.339.026.69.038 1.044.038a16.84 16.84 0 0 0 4.231-.554l-.117.026a16.9 16.9 0 0 0 4.043-1.587l-.087.044v14.875a15.559 15.559 0 0 1-4.042 1.665l-.11.024c-1.173.314-2.52.498-3.91.503h-.1c-1.02 0-2.01-.128-2.955-.368l.083.018V4.438c.229.053.466.102.706.142.394.067.81.115 1.214.145zm7.57.116-.54.181c-.496.167-.997.316-1.5.449-1.344.36-2.888.569-4.48.575h-.004c-.352 0-.676-.01-.989-.03l-.43-.028v12.148l.37.032c.342.03.696.045 1.052.045a14.371 14.371 0 0 0 3.631-.48l-.1.023a14.671 14.671 0 0 0 2.848-1.031l-.088.039.23-.111V4.842zM19.06 24.113a.794.794 0 0 0-.572-.243l-.03.001h.001-.012a.888.888 0 0 0-.34.067l.006-.002a.785.785 0 0 0-.442.444l-.002.005a.874.874 0 0 0-.062.335v2.023a.957.957 0 0 0 .079.415.808.808 0 0 0 .203.271.714.714 0 0 0 .277.144c.099.027.201.042.302.042a.854.854 0 0 0 .838-.851v-.226h-.53v.192c0 .06-.011.118-.032.171l.001-.003a.315.315 0 0 1-.077.114.367.367 0 0 1-.221.077.265.265 0 0 1-.247-.108l-.001-.001a.478.478 0 0 1-.071-.251v-.021.001-1.887a.643.643 0 0 1 .065-.302.27.27 0 0 1 .227-.124l.033.002h-.001.01c.092 0 .174.045.226.114l.001.001a.425.425 0 0 1 .088.26v.012-.001.175h.524v-.215a.958.958 0 0 0-.067-.352l.002.006a.838.838 0 0 0-.177-.285zm3.142-.022a.92.92 0 0 0-.917-.166.838.838 0 0 0-.483.443l-.002.005a.94.94 0 0 0-.077.392v1.94a.932.932 0 0 0 .077.397.77.77 0 0 0 .205.271.837.837 0 0 0 .279.171.914.914 0 0 0 .919-.172l-.001.001a.831.831 0 0 0 .199-.271.934.934 0 0 0 .077-.397v-1.958a.952.952 0 0 0-.08-.381l.002.006a.876.876 0 0 0-.199-.283zm-.247 2.615.001.03a.349.349 0 0 1-.106.251.388.388 0 0 1-.499 0h.001a.344.344 0 0 1-.106-.25c0-.011 0-.022.002-.032v.001-1.941l-.001-.03c0-.098.041-.187.106-.25a.388.388 0 0 1 .499 0h-.001a.344.344 0 0 1 .106.25l-.001.032v-.001 1.941zm4.374.867v-3.675h-.508l-.668 1.945h-.009l-.674-1.945h-.503v3.674h.525v-2.235h.01l.514 1.58h.262l.518-1.58h.01v2.235h.525zm2.982-3.416a.727.727 0 0 0-.297-.201 1.153 1.153 0 0 0-.361-.057h-.8v3.675h.524v-1.435h.269a.968.968 0 0 0 .473-.1.779.779 0 0 0 .286-.278l.002-.003a.893.893 0 0 0 .12-.32 2.56 2.56 0 0 0 .028-.385v-.035.002a2.107 2.107 0 0 0-.051-.525.789.789 0 0 0-.193-.338zm-.27 1.12a.45.45 0 0 1-.05.194l.001-.003a.3.3 0 0 1-.133.128l-.002.001a.525.525 0 0 1-.22.047l-.028-.001h.001-.239v-1.249h.27l.025-.001c.077 0 .149.017.214.048l-.003-.001a.299.299 0 0 1 .122.134l.001.002a.537.537 0 0 1 .046.205v.244c0 .085.005.174 0 .252h-.005zm2.75-1.378h-.429l-.81 3.675h.524l.154-.789h.714l.154.789h.523l-.829-3.675zm-.483 2.384.258-1.332h.01l.256 1.332h-.523zm3.865-.171h-.01l-.79-2.213h-.503v3.675h.523v-2.21h.011l.8 2.209h.493v-3.674h-.523v2.213zm3.199-2.213-.421 1.461h-.011l-.421-1.461h-.554l.719 2.122v1.553h.524v-1.553l.719-2.121h-.555zM17.6 28.611h.252v.708h.171v-.708h.251v-.145H17.6v.146zm2.121-.146-.331.853h.182l.07-.194h.34l.073.194h.187l-.339-.853h-.182zm-.027.516.116-.316.116.316h-.232zm2.124.023h.197v.11a.326.326 0 0 1-.203.072H21.8a.218.218 0 0 1-.169-.081.352.352 0 0 1-.063-.203l.001-.02v.001c0-.19.082-.285.245-.285l.018-.001a.18.18 0 0 1 .174.136v.001l.169-.033c-.036-.166-.156-.251-.362-.251h-.011a.43.43 0 0 0-.287.11.415.415 0 0 0-.123.329v-.001.02c0 .115.041.22.11.301l-.001-.001a.411.411 0 0 0 .297.126l.027-.001h-.001.014a.51.51 0 0 0 .348-.137v-.336h-.37v.144zm2.141-.539h-.173v.853h.597v-.145h-.425v-.708zm1.811 0h-.173v.853h.173v-.853zm1.769.57-.349-.57h-.167v.853h.16v-.557l.343.557h.172v-.853h-.158v.57zm1.601-.093h.425v-.145h-.425v-.187h.457v-.146h-.63v.853h.647v-.145h-.475v-.231zm3.88-.14h-.336v-.336h-.171v.853h.171v-.373h.336v.373h.172v-.853h-.172v.337zm1.609.14h.427v-.145h-.427v-.187h.459v-.146h-.629v.853h.646v-.145h-.475v-.231zm2.183.001c.149-.023.224-.102.224-.237l.001-.024a.205.205 0 0 0-.085-.166h-.001a.478.478 0 0 0-.216-.051l-.035.001h.002-.362v.853h.172v-.357h.048c.034 0 .066.007.094.02l-.001-.001a.181.181 0 0 1 .061.062l.186.271h.205l-.104-.166a.598.598 0 0 0-.187-.203l-.002-.001zm-.173-.118h-.126v-.214h.135l.036-.001c.049 0 .097.008.141.023l-.003-.001c.023.021.037.05.037.083a.114.114 0 0 1-.045.09.464.464 0 0 1-.142.021l-.033-.001h.002zm1.82.117h.425v-.145h-.425v-.187h.459v-.146h-.631v.853h.647v-.145h-.475v-.231z"/></symbol>
<symbol id="icon-foster-poster" viewBox="0 0 65 32"><path d="M10.016 9.983h-.002c-1.827 0-3.308 1.316-3.308 2.94v.002c0 1.624 1.481 2.94 3.308 2.94h.002c1.827 0 3.308-1.317 3.308-2.94v-.002c0-1.624-1.481-2.941-3.308-2.941zm24.418-.939c-.005-2.255-1.016-4.418-2.81-6.012S27.398.539 24.861.534c-2.539.004-4.972.902-6.767 2.497s-2.806 3.757-2.811 6.013v12.437s19.15-1.896 19.152-12.434v-.002zM0 25.562c.005 1.57.709 3.073 1.957 4.183s2.94 1.735 4.706 1.739c1.765-.005 3.457-.63 4.706-1.739s1.952-2.613 1.957-4.181V16.91S.002 18.23.002 25.562zm6.662 1.55c-.345 0-.682-.091-.969-.261a1.617 1.617 0 0 1-.638-.686l-.004-.009a1.394 1.394 0 0 1-.097-.904l-.002.009a1.5 1.5 0 0 1 .477-.794 1.81 1.81 0 0 1 .882-.423l.011-.002a1.939 1.939 0 0 1 1.021.092l-.013-.004c.319.117.592.316.783.571s.294.555.294.861c.001.204-.043.407-.131.596a1.555 1.555 0 0 1-.376.503l-.002.001a1.77 1.77 0 0 1-.567.338 1.907 1.907 0 0 1-.668.119h-.001v-.006zm13.466-.854h-1.286v1.328h-.67v-3.251h2.117v.542h-1.447v.84h1.286v.54zm3.218-.223c0 .32-.056.6-.169.841s-.276.427-.488.558a1.32 1.32 0 0 1-.698.197h-.025.001c-.27 0-.51-.065-.722-.194a1.296 1.296 0 0 1-.487-.546l-.003-.008a1.882 1.882 0 0 1-.177-.804v-.028.001-.16c0-.32.058-.602.172-.844a1.285 1.285 0 0 1 1.212-.757c.271 0 .51.066.721.197.211.13.374.316.489.56.116.242.174.523.174.841v.145zm-.678-.148c0-.341-.061-.6-.183-.777a.596.596 0 0 0-.496-.266l-.028.001h.001l-.025-.001a.597.597 0 0 0-.494.262l-.001.002c-.122.174-.184.43-.185.768v.158c0 .331.061.589.183.772s.297.274.527.274l.026.001a.59.59 0 0 0 .49-.261l.001-.002c.12-.177.181-.434.183-.773v-.158zm2.85.846.001-.019a.34.34 0 0 0-.133-.27l-.001-.001c-.089-.069-.25-.14-.482-.214a3.473 3.473 0 0 1-.57-.232l.019.009c-.37-.2-.554-.469-.554-.806 0-.175.049-.332.147-.469a.975.975 0 0 1 .427-.324c.186-.077.395-.116.625-.116.232 0 .439.042.621.127a.97.97 0 0 1 .421.355.926.926 0 0 1 .152.522h-.67a.434.434 0 0 0-.14-.346c-.094-.084-.226-.125-.395-.125-.164 0-.291.035-.382.105a.325.325 0 0 0-.136.265v.008c0 .106.053.194.158.266.107.071.264.138.471.2.381.114.658.257.833.427s.261.381.261.634c0 .281-.107.503-.32.663s-.498.239-.859.239c-.25 0-.478-.046-.683-.137a1.11 1.11 0 0 1-.469-.373l-.002-.003a.962.962 0 0 1-.16-.533v-.022.001h.671c0 .358.214.538.643.538a.634.634 0 0 0 .373-.096.32.32 0 0 0 .134-.259v-.013.001zm3.574-1.855h-.995v2.708h-.67v-2.708h-.981v-.542h2.647v.542zm2.339 1.3h-1.285v.871h1.509v.538h-2.178v-3.251h2.174v.542h-1.505v.775h1.286v.524zm1.819.218h-.533v1.19h-.67v-3.251h1.208c.384 0 .68.086.888.257s.312.413.312.725a.996.996 0 0 1-.145.556.977.977 0 0 1-.429.35l-.006.002.702 1.328v.03h-.718l-.61-1.189zm-.533-.542h.541c.168 0 .297-.042.39-.126a.46.46 0 0 0 .139-.33l-.001-.026v.001c0-.154-.043-.274-.131-.362s-.219-.132-.4-.132h-.538v.975zm4.058.587v1.145h-.67v-3.251h1.268c.244 0 .459.045.643.134a.98.98 0 0 1 .429.382c.099.164.149.35.149.56 0 .318-.11.57-.328.754-.218.183-.519.275-.904.275h-.587zm0-.542h.598c.178 0 .312-.042.404-.125a.454.454 0 0 0 .141-.357l.001-.024a.534.534 0 0 0-.141-.363.527.527 0 0 0-.389-.152h-.614v1.021zm4.236.279h-1.285v.871h1.509v.538h-2.178v-3.251h2.174v.542h-1.505v.775h1.286v.524zm3.108-1.3h-.996v2.708h-.67v-2.708h-.982v-.542h2.648v.542zm2.339 1.3h-1.285v.871h1.509v.538h-2.179v-3.251h2.174v.542h-1.504v.775h1.285v.524zm1.819.218h-.533v1.19h-.67v-3.251h1.208c.384 0 .68.086.888.257s.312.413.312.725c0 .222-.049.408-.145.556a.982.982 0 0 1-.429.35l-.006.002.703 1.328v.03h-.718l-.61-1.189zm-.533-.542h.54c.168 0 .298-.042.39-.126a.46.46 0 0 0 .139-.331l-.001-.025v.001a.484.484 0 0 0-.132-.362c-.086-.088-.219-.132-.399-.132h-.538v.975zm3.935.88.001-.019a.34.34 0 0 0-.134-.271l-.001-.001c-.089-.069-.25-.14-.482-.214a3.473 3.473 0 0 1-.57-.232l.019.009c-.37-.2-.554-.469-.554-.806 0-.175.05-.332.147-.469a.975.975 0 0 1 .427-.324c.186-.077.395-.116.625-.116.232 0 .439.042.621.127a.97.97 0 0 1 .421.355.926.926 0 0 1 .152.522h-.67a.434.434 0 0 0-.14-.346c-.094-.084-.226-.125-.395-.125-.164 0-.291.035-.382.105a.326.326 0 0 0-.137.265v.007c0 .106.053.194.159.266s.264.138.471.2c.381.114.658.257.833.427s.261.381.261.634c0 .281-.107.503-.32.663s-.499.239-.859.239c-.25 0-.478-.046-.683-.137a1.11 1.11 0 0 1-.469-.373l-.002-.003a.962.962 0 0 1-.16-.533v-.022.001h.671c0 .358.214.538.643.538a.634.634 0 0 0 .373-.096.317.317 0 0 0 .134-.26v-.013.001z"/></symbol>
<symbol id="icon-brand" viewBox="0 0 57 32"><path d="M14.27 23.859a.768.768 0 0 1 .197.56.756.756 0 0 1-.073.326l.002-.005a.83.83 0 0 1-.232.296l-.002.001a1.39 1.39 0 0 1-.885.24h.004-1.549v-3.301h1.517a1.377 1.377 0 0 1 .846.222l-.005-.003a.782.782 0 0 1 .227.277.71.71 0 0 1 .068.341.722.722 0 0 1-.176.505.842.842 0 0 1-.462.258.893.893 0 0 1 .523.283zm-1.816-.498h.649a.655.655 0 0 0 .412-.11.386.386 0 0 0 .109-.144l.001-.003a.358.358 0 0 0 .03-.145l-.001-.033v.001l.001-.028a.376.376 0 0 0-.031-.15l.001.002a.399.399 0 0 0-.108-.147h-.001a.665.665 0 0 0-.373-.113l-.054.002h.002-.638v.867zm1.124 1.266a.407.407 0 0 0 .118-.149l.001-.003a.37.37 0 0 0 .034-.158l-.001-.027v.001l.001-.024a.38.38 0 0 0-.037-.165l.001.002a.41.41 0 0 0-.121-.151l-.001-.001a.705.705 0 0 0-.397-.121l-.045.001h.002-.68v.908h.689a.727.727 0 0 0 .435-.115zm3.793.651-.843-1.291h-.317v1.291h-.726v-3.302h1.374a1.433 1.433 0 0 1 .96.284l-.004-.003a1.016 1.016 0 0 1 .329.735.99.99 0 0 1-.228.633l.001-.002a1.152 1.152 0 0 1-.649.335l-.006.001.899 1.319h-.789zm-1.161-1.74h.594c.412 0 .619-.166.619-.5l.001-.027a.464.464 0 0 0-.035-.176l.001.003a.494.494 0 0 0-.118-.171.68.68 0 0 0-.47-.133h.003-.601l.007 1.005zm5.129 1.075h-1.446l-.255.665h-.761l1.328-3.265h.823l1.323 3.265h-.761l-.25-.665zm-.194-.499-.529-1.394-.529 1.394h1.057zm5.16 1.164h-.72l-1.616-2.245v2.245h-.719v-3.302h.719l1.616 2.259v-2.259h.72v3.302zm4.113-.79a1.501 1.501 0 0 1-.652.582c-.28.132-.608.209-.955.209l-.062-.001h.003-1.282v-3.302h1.283l.06-.001c.345 0 .673.075.968.209l-.015-.006c.276.128.503.329.652.576a1.78 1.78 0 0 1 0 1.733zm-.825-.079c.196-.205.317-.482.318-.788 0-.289-.113-.569-.318-.788a1.317 1.317 0 0 0-.906-.281h.004-.5v2.138h.5a1.323 1.323 0 0 0 .905-.282l-.003.002zm-7.803-20.8s9.3 3.215 9.103 7.867v7.869s-9.294-3.216-9.1-7.869l-.003-7.867zm17.389 13.894a13.494 13.494 0 0 1 5.909-1.994v-2.464c-2.444.863-4.517 2.427-5.909 4.458z"/><path d="M38.124 18.245c1.437-2.651 3.93-4.696 6.964-5.716V5.431s-13.245 4.58-12.965 11.205v11.203s.59-.205 1.519-.589c0-.358 0-.719.043-1.083.274-3.075 1.87-5.925 4.439-7.924z"/><path d="M36.864 22.407c.069-.777.225-1.546.463-2.294-1.599 1.725-2.568 3.867-2.769 6.122-.02.213-.03.426-.036.645a36.805 36.805 0 0 0 2.761-1.334l-.214.105a10.624 10.624 0 0 1-.206-3.244zm.527.04a10.167 10.167 0 0 0 .175 3.003l-.012-.066c3.619-1.983 7.685-5.046 7.528-8.748v-.323c-2.586.265-5.004 1.3-6.885 2.946a10.02 10.02 0 0 0-.804 3.148l-.003.04z"/></symbol>
<symbol id="icon-tag-line" viewBox="0 0 57 32"><path d="M28.493 14.618a1.563 1.563 0 0 1-.322-1.065v.005-1.538c0-.471.107-.829.321-1.075.213-.245.581-.367 1.101-.366.489 0 .837.105 1.042.313.224.266.333.591.308.919v.362h-.875v-.366a1.799 1.799 0 0 0-.026-.358.34.34 0 0 0-.125-.212l-.001-.001a.499.499 0 0 0-.279-.084l-.039.001h.002l-.038-.001a.53.53 0 0 0-.297.09l.002-.001a.415.415 0 0 0-.145.232v.003a1.74 1.74 0 0 0-.035.351v.031-.002 1.866c-.014.18.025.36.112.524.045.056.104.1.172.126l.003.001a.48.48 0 0 0 .228.029H29.6a.47.47 0 0 0 .311-.086l-.002.001a.37.37 0 0 0 .13-.224v-.002c.02-.124.03-.249.027-.374v-.379h.875v.346a1.397 1.397 0 0 1-.305.969l.002-.003c-.201.228-.544.342-1.047.342s-.884-.122-1.1-.375zm3.644.016c-.221-.24-.332-.588-.332-1.05v-1.618c0-.457.11-.803.332-1.037s.59-.351 1.109-.35c.515 0 .882.117 1.103.35.221.235.333.58.333 1.037v1.617c0 .457-.112.807-.337 1.049s-.59.361-1.1.361-.886-.122-1.109-.359zm1.516-.389a.902.902 0 0 0 .105-.478v-1.981a.872.872 0 0 0-.105-.474l.002.005a.425.425 0 0 0-.176-.128l-.003-.001a.473.473 0 0 0-.233-.027h.002a.49.49 0 0 0-.235.028l.003-.001a.416.416 0 0 0-.179.128l-.001.001a.855.855 0 0 0-.105.469v1.99a.888.888 0 0 0 .105.479.605.605 0 0 0 .639.116l-.004.001a.563.563 0 0 0 .185-.118v-.01zm2.082-3.619h.942l.708 2.984.725-2.984h.916l.093 4.307h-.678l-.073-2.994-.699 2.994h-.544l-.724-3.005-.067 3.005h-.685l.085-4.307zm4.441 0h1.468c.845 0 1.268.407 1.268 1.223 0 .781-.445 1.171-1.335 1.17h-.5v1.914h-.906l.005-4.308zm1.254 1.841a.707.707 0 0 0 .498-.136.699.699 0 0 0 .131-.486 1.325 1.325 0 0 0-.046-.4l.002.009a.317.317 0 0 0-.067-.119.386.386 0 0 0-.112-.085l-.002-.001a.913.913 0 0 0-.357-.071l-.05.001h.002-.351v1.287h.352zm2.789-1.841h.973l.998 4.307h-.845l-.197-.993h-.868l-.203.993h-.857l.998-4.307zm.831 2.816-.339-1.808-.339 1.808h.677zm1.946-2.816h.635l1.213 2.457v-2.457h.752v4.307h-.603l-1.221-2.565v2.565h-.777l.002-4.307zm4.361 2.665-1.009-2.659h.85l.616 1.708.578-1.708h.832l-.997 2.659v1.642h-.869V13.29zm-21.465 3.526v.225h-.739v1.75h-.31v-1.75H28.1v-.225h1.792zm2.318 1.976h-.246a.105.105 0 0 1-.061-.019.1.1 0 0 1-.039-.045v-.001l-.214-.469h-1.026l-.213.469a.126.126 0 0 1-.033.053.108.108 0 0 1-.062.019h-.245l.906-1.975h.315l.917 1.968zm-1.501-.734h.855l-.363-.804a1.278 1.278 0 0 1-.064-.176l-.003-.01-.034.105-.033.083-.358.803zm3.062.539a1.018 1.018 0 0 0 .316-.023 1.018 1.018 0 0 0 .252-.085v-.444h-.365a.076.076 0 0 1-.046-.016c-.006-.004-.01-.01-.014-.016a.034.034 0 0 1-.004-.018v-.153h.703v.757c-.11.068-.237.123-.372.158l-.01.002c-.075.019-.15.033-.227.041a2.598 2.598 0 0 1-.265.012h-.011c-.159 0-.312-.027-.455-.077l.01.003a1.123 1.123 0 0 1-.364-.208l.002.001a.952.952 0 0 1-.231-.307l-.002-.006a.965.965 0 0 1-.083-.397v-.013.001-.012c0-.145.03-.283.084-.407l-.003.007a.907.907 0 0 1 .234-.313c.103-.089.227-.158.363-.205.155-.051.32-.076.485-.074.084 0 .169.005.252.017.074.011.146.027.215.05.064.02.124.047.181.078.055.031.108.065.158.103l-.087.122a.073.073 0 0 1-.029.026.093.093 0 0 1-.042.011.111.111 0 0 1-.057-.016h.001a.892.892 0 0 1-.094-.05l.005.003a.814.814 0 0 0-.115-.052l-.006-.002a1.027 1.027 0 0 0-.16-.043l-.007-.001a1.34 1.34 0 0 0-.218-.017h-.013.001-.011c-.121 0-.238.02-.346.057l.008-.002a.774.774 0 0 0-.267.156.672.672 0 0 0-.166.241l-.002.005a.917.917 0 0 0 .002.665l-.002-.006a.76.76 0 0 0 .445.405c.115.034.237.047.359.039zm2.888-.031h.989v.225h-1.291v-1.975h.309l-.007 1.75zm2.018.226h-.309v-1.975h.309v1.975zm1.153-1.966a.14.14 0 0 1 .047.036l1.324 1.489-.001-.035.001-.037v.002-1.472h.27v1.984h-.166a.14.14 0 0 1-.058-.012h.001a.162.162 0 0 1-.048-.037l-1.323-1.488v1.536h-.259v-1.975h.161c.018 0 .035.003.051.009zm3.923-.01v.217h-1.098v.652h.89v.21h-.89v.674h1.098v.218h-1.417v-1.971h1.417zm-32.467-12.2 13.757 3.372v11.818l-13.757-3.371V4.616zm-.882-1.008V17.01l15.52 3.806V7.417L10.404 3.61z"/><path d="M18.722 27.036 3.2 23.227V9.828l15.522 3.807v13.401z"/><path d="m10.661 4.465 13.578 3.33-5.774 4.987L4.886 9.45l5.776-4.986zm-.257-.856L3.2 9.828l15.522 3.808 7.202-6.22-15.52-3.807zm9.191 22.673 6.329-5.466-6.33-1.552v7.019z"/></symbol>
<symbol id="icon-modal-close" viewBox="0 0 32 32"><path d="M32 3.223 28.777 0 16 12.777 3.223 0 0 3.223 12.777 16 0 28.777 3.223 32 16 19.223 28.777 32 32 28.777 19.223 16 32 3.223z"/></symbol>
<symbol id="icon-person-black" viewBox="0 0 32 32"><path d="M16 16a5.333 5.333 0 1 0 0-10.666A5.333 5.333 0 1 0 16 16zm0 2.667c-3.561 0-10.667 1.787-10.667 5.333v1.333c0 .732.599 1.333 1.333 1.333h18.667c.732 0 1.333-.601 1.333-1.333V24c0-3.547-7.108-5.333-10.667-5.333z"/></symbol>
<symbol id="icon-phone-black-18dp-1" viewBox="0 0 32 32"><path d="m24.882 20.14-3.268-.36a2.616 2.616 0 0 0-2.11.708l-2.367 2.284c-3.641-1.788-6.626-4.655-8.478-8.181l2.38-2.297a2.421 2.421 0 0 0 .733-2.036l-.373-3.128c-.154-1.254-1.248-2.197-2.56-2.197H6.613c-1.454 0-2.663 1.167-2.573 2.57.682 10.602 9.469 19.068 20.443 19.726 1.454.087 2.663-1.08 2.663-2.483v-2.148c.013-1.254-.965-2.309-2.264-2.458z"/></symbol>
<symbol id="icon-email-0108" viewBox="0 0 47 32"><path d="M40.727.711H5.818c-2.4 0-4.342 1.733-4.342 3.851l-.022 23.109c0 2.118 1.964 3.851 4.364 3.851h34.909c2.4 0 4.364-1.733 4.364-3.851V4.562c0-2.118-1.964-3.852-4.364-3.852zm-.872 8.184L24.43 17.407a2.46 2.46 0 0 1-2.313 0L6.692 8.895c-.545-.308-.873-.828-.873-1.387 0-1.29 1.593-2.061 2.836-1.387l14.618 8.069 14.618-8.069c1.244-.674 2.836.096 2.836 1.387 0 .558-.327 1.078-.873 1.387z"/></symbol>
<symbol id="icon-send" viewBox="0 0 24 21"><path d="M24 0.593018L0 12.0523L7.66994 14.4636L19.5 5.04943L10.5017 15.3539L10.509 15.3562L10.5 15.3539V20.9652L14.8013 16.7056L20.2501 18.4187L24 0.593018Z" fill="white"/></symbol>
<symbol id="39-checkbox-unchecked" viewBox="0 0 16 15">
 <path d="M14.2222 1.66667V13.3333H1.77778V1.66667H14.2222ZM14.2222 0H1.77778C0.8 0 0 0.75 0 1.66667V13.3333C0 14.25 0.8 15 1.77778 15H14.2222C15.2 15 16 14.25 16 13.3333V1.66667C16 0.75 15.2 0 14.2222 0Z" fill="#212121"/></symbol>
<symbol id="40-checkbox-checked" viewBox="0 0 16 15"><rect width="16" height="15" rx="2" fill="#2196F3"/><path d="M3.95703 7.75166L3.88825 7.68604L3.81923 7.75141L2.93123 8.59258L2.85486 8.66492L2.93097 8.73753L6.42671 12.0724L6.49574 12.1382L6.56476 12.0724L14.069 4.91352L14.1449 4.84116L14.069 4.76881L13.1873 3.92764L13.1183 3.86183L13.0493 3.92761L6.49577 10.1735L3.95703 7.75166Z" fill="white" stroke="white" stroke-width="0.2"/>
</symbol>

</defs></svg>