<svg width="16" height="11" viewBox="0 0 16 11" fill="none" xmlns="http://www.w3.org/2000/svg">
<path d="M14 0.244385H2C1.175 0.244385 0.5075 0.840165 0.5075 1.56834L0.5 9.51208C0.5 10.2403 1.175 10.836 2 10.836H14C14.825 10.836 15.5 10.2403 15.5 9.51208V1.56834C15.5 0.840165 14.825 0.244385 14 0.244385ZM13.7 3.05779L8.3975 5.98374C8.1575 6.11613 7.8425 6.11613 7.6025 5.98374L2.3 3.05779C2.1125 2.95188 2 2.77314 2 2.58117C2 2.13764 2.5475 1.87285 2.975 2.10454L8 4.87823L13.025 2.10454C13.4525 1.87285 14 2.13764 14 2.58117C14 2.77314 13.8875 2.95188 13.7 3.05779Z" fill="#212121"/>
</svg>
